<svg xmlns="http://www.w3.org/2000/svg" viewBox="0 0 120 100" width="120" height="100" role="img" aria-label="Mr. Crab">
  <g stroke="#b91c1c" stroke-width="4" stroke-linecap="round" fill="none">
    <path d="M30 70 L14 80"/><path d="M34 78 L20 92"/>
    <path d="M90 70 L106 80"/><path d="M86 78 L100 92"/>
  </g>
  <g stroke="#b91c1c" stroke-width="5" stroke-linecap="round">
    <line x1="32" y1="60" x2="20" y2="56"/><line x1="88" y1="60" x2="100" y2="56"/>
  </g>
  <g fill="#dc2626">
    <circle cx="20" cy="54" r="10"/><circle cx="100" cy="54" r="10"/>
    <path d="M14 48 q-9 -6 -1 -13 q7 4 5 11 z"/>
    <path d="M106 48 q9 -6 1 -13 q-7 4 -5 11 z"/>
  </g>
  <ellipse cx="60" cy="62" rx="33" ry="22" fill="#ef4444"/>
  <g stroke="#b91c1c" stroke-width="4">
    <line x1="50" y1="44" x2="48" y2="30"/><line x1="70" y1="44" x2="72" y2="30"/>
  </g>
  <circle cx="48" cy="26" r="7" fill="#fff" stroke="#b91c1c" stroke-width="2"/>
  <circle cx="72" cy="26" r="7" fill="#fff" stroke="#b91c1c" stroke-width="2"/>
  <circle cx="49" cy="27" r="3" fill="#1f2937"/><circle cx="71" cy="27" r="3" fill="#1f2937"/>
  <path d="M48 66 q12 12 24 0" fill="none" stroke="#7f1d1d" stroke-width="3" stroke-linecap="round"/>
  <path d="M44 16 q-9 -2 -7 -10 q7 3 9 -2 q4 6 10 0 q4 6 10 2 q2 8 -7 10 z" fill="#fff" stroke="#e5e7eb"/>
</svg>
